<svg width="33" height="24" viewBox="0 0 33 24" fill="none" xmlns="http://www.w3.org/2000/svg">
<path d="M32.146 6.20865C32.146 7.08531 31.3002 7.80258 30.2665 7.80258H2.69937C1.66561 7.80258 0.819798 7.08531 0.819798 6.20865V6.19536C0.819798 3.1536 3.71748 0.696289 7.30433 0.696289H25.6459C29.2327 0.696289 32.146 3.16689 32.146 6.20865Z" fill="#292D32"/>
<path d="M0.819798 11.3908V18.0455C0.819798 21.0872 3.71748 23.5446 7.30433 23.5446H25.6459C29.2327 23.5446 32.146 21.074 32.146 18.0322V11.3908C32.146 10.5141 31.3002 9.79688 30.2665 9.79688H2.69937C1.66561 9.79688 0.819798 10.5141 0.819798 11.3908ZM10.2177 19.0948H7.08505C6.44286 19.0948 5.91031 18.6432 5.91031 18.0986C5.91031 17.554 6.44286 17.1024 7.08505 17.1024H10.2177C10.8599 17.1024 11.3924 17.554 11.3924 18.0986C11.3924 18.6432 10.8599 19.0948 10.2177 19.0948ZM20.3987 19.0948H14.1335C13.4913 19.0948 12.9587 18.6432 12.9587 18.0986C12.9587 17.554 13.4913 17.1024 14.1335 17.1024H20.3987C21.0409 17.1024 21.5734 17.554 21.5734 18.0986C21.5734 18.6432 21.0409 19.0948 20.3987 19.0948Z" fill="#292D32"/>
</svg>
