<svg width="30" height="30" viewBox="0 0 30 30" fill="none" xmlns="http://www.w3.org/2000/svg">
<path d="M3.4375 4.0625L6.0375 4.5125L7.24125 18.8537C7.3375 20.025 8.31625 20.9237 9.49125 20.92H23.1275C24.2487 20.9225 25.2 20.0975 25.3588 18.9875L26.545 10.79C26.6775 9.87375 26.0413 9.02375 25.1263 8.89125C25.0463 8.88 6.455 8.87375 6.455 8.87375" stroke="white" stroke-width="1.5" stroke-linecap="round" stroke-linejoin="round"/>
<path d="M17.6562 13.4932H21.1225" stroke="white" stroke-width="1.5" stroke-linecap="round" stroke-linejoin="round"/>
<path fill-rule="evenodd" clip-rule="evenodd" d="M8.94269 25.2529C9.31894 25.2529 9.6227 25.5579 9.6227 25.9329C9.6227 26.3092 9.31894 26.6142 8.94269 26.6142C8.56644 26.6142 8.2627 26.3092 8.2627 25.9329C8.2627 25.5579 8.56644 25.2529 8.94269 25.2529Z" fill="white" stroke="white" stroke-width="1.5" stroke-linecap="round" stroke-linejoin="round"/>
<path fill-rule="evenodd" clip-rule="evenodd" d="M23.0433 25.2529C23.4195 25.2529 23.7245 25.5579 23.7245 25.9329C23.7245 26.3092 23.4195 26.6142 23.0433 26.6142C22.667 26.6142 22.3633 26.3092 22.3633 25.9329C22.3633 25.5579 22.667 25.2529 23.0433 25.2529Z" fill="white" stroke="white" stroke-width="1.5" stroke-linecap="round" stroke-linejoin="round"/>
</svg>
